# xmcd
#
# Track frame offsets: 
#        150
#        15112
#        31110
#        50131
#        63524
#        87749
#        104286
#        124496
#        143445
#
# Disc length: 2148 seconds
#
# Revision: 0
# Processed by: cddbd v1.5.2PL0 Copyright (c) Steve Scherf et al.
# Submitted via: ExactAudioCopy v0.99pb4
#
DISCID=74086209
DTITLE=Milla - Любовь с Небес (2006)
DYEAR=2006
DGENRE=
TTITLE0=Святой (оригинал Jaci Velasquez "Holy") 
TTITLE1=Сердце открой (оригинал Jaci Velasquez "Come as you are") 
TTITLE2=Любовь с небес (оригинал Jaci Velasque "Imagine me without you
TTITLE2=") 
TTITLE3=Листья 
TTITLE4=Моё седце должно быть с Тобой (оригинал Jaci Velasquez "I don'
TTITLE4=t wanna go") 
TTITLE5=Мы изменим мир (оригинал Jaci Velasquez "We can make a differe
TTITLE5=cne") 
TTITLE6=Рождественская 
TTITLE7=К Тебе (оригинал Jaci Velasquez "Adore")
TTITLE8=Сердцем и душой (оригинал Jaci Velasquez "On my knees")
EXTD=
EXTT0=
EXTT1=
EXTT2=
EXTT3=
EXTT4=
EXTT5=
EXTT6=
EXTT7=
EXTT8=
PLAYORDER=
